<svg width="22" height="22" fill="none" xmlns="http://www.w3.org/2000/svg"><g opacity=".5" clip-path="url(#clip0)" fill="#fff"><path d="M18.592 0H3.19A3.195 3.195 0 000 3.19v15.402c0 1.76 1.432 3.19 3.19 3.19h15.402c1.76 0 3.19-1.43 3.19-3.19V3.19c0-1.76-1.43-3.191-3.19-3.191zm-7.658 16.592A5.75 5.75 0 015.19 10.85a5.75 5.75 0 015.744-5.744 5.75 5.75 0 015.743 5.744 5.75 5.75 0 01-5.743 5.743zm6.382-10.21A1.917 1.917 0 0115.4 4.467c0-1.055.859-1.914 1.915-1.914 1.055 0 1.914.859 1.914 1.914a1.917 1.917 0 01-1.915 1.915z"/><path d="M17.316 3.829a.639.639 0 100 1.277.639.639 0 000-1.277zm-6.382 2.553a4.473 4.473 0 00-4.467 4.467 4.473 4.473 0 004.467 4.467 4.473 4.473 0 004.467-4.467 4.473 4.473 0 00-4.467-4.467z"/></g><defs><clipPath id="clip0"><path fill="#fff" d="M0 0h21.783v21.783H0z"/></clipPath></defs></svg>