<svg width="23" height="22" fill="none" xmlns="http://www.w3.org/2000/svg"><g opacity=".5" clip-path="url(#clip0)"><path d="M20.385 0H2.96C1.763 0 .783.98.783 2.178v17.424c0 1.198.98 2.178 2.178 2.178h17.424c1.198 0 2.178-.98 2.178-2.178V2.178C22.563.98 21.583 0 20.385 0zM17.88 7.95c-.109 5.01-3.267 8.494-8.059 8.712-1.96.109-3.375-.545-4.682-1.307 1.415.218 3.267-.327 4.247-1.198-1.416-.109-2.287-.871-2.723-2.07.436.11.872 0 1.198 0-1.307-.435-2.178-1.197-2.287-2.94.327.218.763.327 1.198.327-.98-.544-1.633-2.613-.871-3.92 1.416 1.524 3.158 2.831 5.99 3.05-.763-3.05 3.376-4.684 5.009-2.614.762-.11 1.307-.436 1.851-.654-.218.762-.653 1.198-1.198 1.634.545-.11 1.09-.218 1.525-.436-.109.545-.654.98-1.198 1.416z" fill="#fff"/></g><defs><clipPath id="clip0"><path fill="#fff" transform="translate(.783)" d="M0 0h21.78v21.78H0z"/></clipPath></defs></svg>