<svg width="23" height="22" fill="none" xmlns="http://www.w3.org/2000/svg"><g opacity=".5" clip-path="url(#clip0)"><path d="M19.623 0H3.286A2.726 2.726 0 00.563 2.723V19.06a2.726 2.726 0 002.723 2.723h8.168v-7.488H8.731V10.89h2.723V8.168a4.084 4.084 0 014.084-4.084h2.723v3.404H16.9c-.752 0-1.362-.071-1.362.68v2.723h3.404l-1.362 3.404h-2.042v7.488h4.085a2.726 2.726 0 002.722-2.723V2.723A2.726 2.726 0 0019.623 0z" fill="#fff"/></g><defs><clipPath id="clip0"><path fill="#fff" transform="translate(.563)" d="M0 0h21.783v21.783H0z"/></clipPath></defs></svg>