<svg width="23" height="22" fill="none" xmlns="http://www.w3.org/2000/svg"><g opacity=".5" clip-path="url(#clip0)" fill="#fff"><path d="M9.835 8.747v3.975l3.665-1.97-3.665-2.005z"/><path d="M16.663 0H5.79C2.8 0 .345 2.455.345 5.462v10.873c0 2.99 2.455 5.445 5.445 5.445h10.873a5.474 5.474 0 005.462-5.462V5.462A5.474 5.474 0 0016.663 0zm1.314 11.426c0 1.14-.104 2.299-.104 2.299s-.12.968-.518 1.4c-.519.57-1.09.57-1.349.605-1.901.138-4.753.156-4.753.156s-3.544-.052-4.633-.156c-.294-.052-.985-.035-1.504-.605-.415-.432-.518-1.4-.518-1.4s-.104-1.158-.104-2.3v-1.07c0-1.142.104-2.3.104-2.3s.12-.968.518-1.4c.519-.57 1.09-.588 1.349-.622 1.918-.139 4.77-.156 4.77-.156s2.853.017 4.754.156c.26.034.847.052 1.366.605.415.432.518 1.417.518 1.417s.104 1.158.104 2.3v1.07z"/></g><defs><clipPath id="clip0"><path fill="#fff" transform="translate(.345)" d="M0 0h21.78v21.78H0z"/></clipPath></defs></svg>