<svg width="969" height="238" fill="none" xmlns="http://www.w3.org/2000/svg"><path opacity=".03" d="M107.1 16.4c12 0 22.2 1.7 30.6 5.1 8.4 3.4 16.6 8.2 24.6 14.4 2.2 1.8 4.1 2.7 5.7 2.7 4 0 6.6-6 7.8-18h6.9c-.8 13.6-1.2 37.8-1.2 72.6h-6.9c-1.8-14.8-4.2-26.1-7.2-33.9-3-7.8-8.1-14.6-15.3-20.4-5-4.8-10.8-8.4-17.4-10.8-6.6-2.6-13.5-3.9-20.7-3.9-20.2 0-35.2 9.9-45 29.7-9.8 19.6-14.7 44.1-14.7 73.5 0 29.2 5.1 53.6 15.3 73.2C79.8 220.2 95 230 115.2 230c6.8 0 13.5-1.2 20.1-3.6 6.8-2.6 12.5-6.3 17.1-11.1 7.4-5.6 12.5-12.6 15.3-21 3-8.4 5.3-20.7 6.9-36.9h6.9c0 36.2.4 61.4 1.2 75.6h-6.9c-.6-6.4-1.5-10.9-2.7-13.5-1-2.8-2.5-4.2-4.5-4.2-1.6 0-3.7.8-6.3 2.4-9 6.4-17.6 11.3-25.8 14.7-8.2 3.2-18.1 4.8-29.7 4.8-21.2 0-39.8-4.3-55.8-12.9-15.8-8.6-28.1-21-36.9-37.2C5.3 170.7.9 151.2.9 128.6c0-22 4.5-41.5 13.5-58.5s21.5-30.2 37.5-39.6c16.2-9.4 34.6-14.1 55.2-14.1zm202.823 57.3c9 0 15.8 2.7 20.4 8.1 4.6 5.4 6.9 11.9 6.9 19.5 0 7.4-2.2 13.5-6.6 18.3-4.2 4.6-9.8 6.9-16.8 6.9-6.8 0-12.2-1.7-16.2-5.1-4-3.6-6-8.3-6-14.1 0-9.6 4.4-17.4 13.2-23.4-.8-.2-2-.3-3.6-.3-2 0-3.6.2-4.8.6-7.6 1.2-14.1 5.8-19.5 13.8-5.2 8-7.8 16.2-7.8 24.6v79.5c0 9.2 2.2 15.6 6.6 19.2 4.6 3.6 11.8 5.4 21.6 5.4v6.3c-2.8 0-5.1-.1-6.9-.3-20.4-.6-34-.9-40.8-.9-5.4 0-17.7.3-36.9.9-1.6.2-3.6.3-6 .3v-6.3c7.2 0 12.2-1.5 15-4.5 2.8-3.2 4.2-8.9 4.2-17.1v-94.5c0-9.2-1.4-15.9-4.2-20.1-2.8-4.2-7.8-6.3-15-6.3v-6.3c6.4.6 12.6.9 18.6.9 17.8 0 32.4-1.4 43.8-4.2v27.9c3.8-8.6 9.3-15.5 16.5-20.7 7.2-5.4 15.3-8.1 24.3-8.1zM385.763.5c8.4 0 15 2.1 19.8 6.3 5 4 7.5 9.6 7.5 16.8 0 7.2-2.5 12.9-7.5 17.1-4.8 4-11.4 6-19.8 6s-15.1-2-20.1-6c-4.8-4.2-7.2-9.9-7.2-17.1 0-7.2 2.4-12.8 7.2-16.8 5-4.2 11.7-6.3 20.1-6.3zm23.4 204.6c0 8.2 1.4 13.9 4.2 17.1 3 3 8 4.5 15 4.5v6.3c-20-.8-33.3-1.2-39.9-1.2-6.2 0-20.101.4-41.7 1.2v-6.3c7.2 0 12.2-1.5 15-4.5 2.8-3.2 4.2-8.9 4.2-17.1v-94.5c0-9.2-1.4-15.9-4.2-20.1-2.8-4.2-7.8-6.3-15-6.3v-6.3c6.4.6 12.6.9 18.6.9 17.8 0 32.4-1.4 43.8-4.2v130.5zm273.428 0c0 8.2 1.4 13.9 4.2 17.1 3 3 8 4.5 15 4.5v6.3c-20-.8-33.2-1.2-39.6-1.2-5.6 0-18 .4-37.2 1.2v-6.3c5.4 0 9.1-1.5 11.1-4.5 2.2-3 3.3-8.7 3.3-17.1v-93.3c0-8.4-1.3-14.6-3.9-18.6-2.4-4.2-7.1-6.3-14.1-6.3-7.4 0-13.9 3.1-19.5 9.3-5.4 6.2-8.6 13.8-9.6 22.8v86.1c0 8.2 1.2 13.9 3.6 17.1 2.6 3 7.2 4.5 13.8 4.5v6.3c-19.2-.8-31.8-1.2-37.8-1.2-5.6 0-18 .4-37.2 1.2v-6.3c5.4 0 9.1-1.5 11.1-4.5 2.2-3.2 3.3-8.9 3.3-17.1v-93.3c0-8.4-1.1-14.6-3.3-18.6-2.2-4.2-6.5-6.3-12.9-6.3-8 0-14.9 3.4-20.7 10.2-5.6 6.6-8.4 14.8-8.4 24.6v83.4c0 8.2 1 13.9 3 17.1 2.2 3 6 4.5 11.4 4.5v6.3c-17.6-.8-29.4-1.2-35.4-1.2s-19.8.4-41.4 1.2v-6.3c7.2 0 12.2-1.5 15-4.5 2.8-3.2 4.2-8.9 4.2-17.1v-94.5c0-9.2-1.4-15.9-4.2-20.1-2.8-4.2-7.8-6.3-15-6.3v-6.3c6.4.6 12.6.9 18.6.9 17.8 0 32.4-1.4 43.8-4.2v27c8.8-18.6 24.3-27.9 46.5-27.9 15.2 0 26.2 3.9 33 11.7 3.8 4 6.3 10 7.5 18 5.2-10.8 12-18.4 20.4-22.8 8.4-4.6 18.2-6.9 29.4-6.9 15.2 0 26.2 3.9 33 11.7 3.2 3.6 5.5 8.5 6.9 14.7 1.4 6.2 2.1 14.3 2.1 24.3v80.7zm118.582 7.5c16.4 0 29.6-8 39.6-24l5.4 1.8c-4 13-11.2 24.1-21.6 33.3-10.2 9-23 13.5-38.4 13.5-21.2 0-38.1-6.7-50.7-20.1-12.4-13.6-18.6-33.6-18.6-60 0-27 6.7-47.6 20.1-61.8 13.4-14.4 31.2-21.6 53.4-21.6 37.6 0 56.4 22.2 56.4 66.6h-84.3c-.2 3-.3 7.7-.3 14.1 0 13.2 1.8 24.2 5.4 33 3.8 8.8 8.6 15.2 14.4 19.2 6 4 12.4 6 19.2 6zM788.573 80c-7.2 0-13.2 4.5-18 13.5-4.6 8.8-7.5 22.5-8.7 41.1h47.1c.4-15.8-1.2-28.8-4.8-39-3.4-10.4-8.6-15.6-15.6-15.6zm115.172 155.1c-12.8 0-22.4-3.3-28.8-9.9-6.2-6.6-9.3-15.3-9.3-26.1 0-9 2.3-16.4 6.9-22.2 4.8-6 10.5-10.6 17.1-13.8 6.8-3.2 15.4-6.6 25.8-10.2 11-3.8 19-7.2 24-10.2 5.2-3.2 7.8-7.5 7.8-12.9v-23.4c0-8.4-2-14.9-6-19.5-3.8-4.8-9.8-7.2-18-7.2-9.6 0-16.9 2.4-21.9 7.2 5.6 2 9.9 5 12.9 9 3.2 4 4.8 8.7 4.8 14.1 0 6.8-2.3 12.2-6.9 16.2-4.6 4-10.2 6-16.8 6-7 0-12.4-2.2-16.2-6.6-3.8-4.4-5.7-9.9-5.7-16.5 0-5.6 1.3-10.3 3.9-14.1 2.8-4 7-7.7 12.6-11.1 5.4-3.2 12-5.7 19.8-7.5 8-1.8 16.7-2.7 26.1-2.7 9.8 0 18.3 1 25.5 3 7.2 2 13.2 5.4 18 10.2 4.4 4.4 7.3 9.8 8.7 16.2 1.6 6.4 2.4 15.1 2.4 26.1v81.6c0 4.8.4 8.2 1.2 10.2 1 2 2.8 3 5.4 3 3.005 0 6.605-1.7 10.805-5.1l3 5.1c-9 7.4-20.005 11.1-33.005 11.1-11 0-18.7-2.2-23.1-6.6-4.4-4.4-6.7-10.3-6.9-17.7-10 16.2-24.7 24.3-44.1 24.3zm23.1-19.2c7.8 0 14.6-4.1 20.4-12.3v-61.5c-2.4 4-7.5 8.4-15.3 13.2-7.8 5-13.7 10-17.7 15s-6 12.2-6 21.6c0 8.2 1.7 14.3 5.1 18.3 3.4 3.8 7.9 5.7 13.5 5.7z" fill="#362307"/></svg>