<svg width="92" height="17" fill="none" xmlns="http://www.w3.org/2000/svg"><path d="M7.94 1.56c.8 0 1.48.113 2.04.34.56.227 1.107.547 1.64.96.147.12.273.18.38.18.267 0 .44-.4.52-1.2h.46c-.053.907-.08 2.52-.08 4.84h-.46c-.12-.987-.28-1.74-.48-2.26-.2-.52-.54-.973-1.02-1.36-.333-.32-.72-.56-1.16-.72-.44-.173-.9-.26-1.38-.26-1.347 0-2.347.66-3 1.98-.653 1.307-.98 2.94-.98 4.9 0 1.947.34 3.573 1.02 4.88.68 1.307 1.693 1.96 3.04 1.96.453 0 .9-.08 1.34-.24.453-.173.833-.42 1.14-.74.493-.373.833-.84 1.02-1.4.2-.56.353-1.38.46-2.46h.46c0 2.413.027 4.093.08 5.04h-.46c-.04-.427-.1-.727-.18-.9-.067-.187-.167-.28-.3-.28-.107 0-.247.053-.42.16-.6.427-1.173.753-1.72.98-.547.213-1.207.32-1.98.32-1.413 0-2.653-.287-3.72-.86a6.04 6.04 0 01-2.46-2.48c-.587-1.093-.88-2.393-.88-3.9 0-1.467.3-2.767.9-3.9.6-1.133 1.433-2.013 2.5-2.64 1.08-.627 2.307-.94 3.68-.94zm13.522 3.82c.6 0 1.053.18 1.36.54.306.36.46.793.46 1.3 0 .493-.147.9-.44 1.22-.28.307-.654.46-1.12.46-.454 0-.814-.113-1.08-.34-.267-.24-.4-.553-.4-.94 0-.64.293-1.16.88-1.56a1.067 1.067 0 00-.24-.02c-.134 0-.24.013-.32.04-.507.08-.94.387-1.3.92-.347.533-.52 1.08-.52 1.64v5.3c0 .613.146 1.04.44 1.28.306.24.786.36 1.44.36V16c-.187 0-.34-.007-.46-.02-1.36-.04-2.267-.06-2.72-.06-.36 0-1.18.02-2.46.06a3.39 3.39 0 01-.4.02v-.42c.48 0 .813-.1 1-.3.186-.213.28-.593.28-1.14v-6.3c0-.613-.094-1.06-.28-1.34-.187-.28-.52-.42-1-.42v-.42c.426.04.84.06 1.24.06 1.186 0 2.16-.093 2.92-.28V7.3a3.318 3.318 0 011.1-1.38c.48-.36 1.02-.54 1.62-.54zM26.517.5c.56 0 1 .14 1.32.42.334.267.5.64.5 1.12 0 .48-.166.86-.5 1.14-.32.267-.76.4-1.32.4s-1.006-.133-1.34-.4c-.32-.28-.48-.66-.48-1.14 0-.48.16-.853.48-1.12.334-.28.78-.42 1.34-.42zm1.56 13.64c0 .547.094.927.28 1.14.2.2.534.3 1 .3V16a83.673 83.673 0 00-2.66-.08c-.413 0-1.34.027-2.78.08v-.42c.48 0 .814-.1 1-.3.187-.213.28-.593.28-1.14v-6.3c0-.613-.093-1.06-.28-1.34-.186-.28-.52-.42-1-.42v-.42c.427.04.84.06 1.24.06 1.187 0 2.16-.093 2.92-.28v8.7zm18.23 0c0 .547.092.927.28 1.14.2.2.532.3 1 .3V16a84.095 84.095 0 00-2.64-.08c-.374 0-1.2.027-2.48.08v-.42c.36 0 .606-.1.74-.3.146-.2.22-.58.22-1.14V7.92c0-.56-.088-.973-.26-1.24-.16-.28-.474-.42-.94-.42-.494 0-.928.207-1.3.62-.36.413-.574.92-.64 1.52v5.74c0 .547.08.927.24 1.14.172.2.48.3.92.3V16c-1.28-.053-2.12-.08-2.52-.08-.374 0-1.2.027-2.48.08v-.42c.36 0 .606-.1.74-.3.146-.213.22-.593.22-1.14V7.92c0-.56-.074-.973-.22-1.24-.148-.28-.434-.42-.86-.42-.534 0-.994.227-1.38.68-.374.44-.56.987-.56 1.64v5.56c0 .547.066.927.2 1.14.146.2.4.3.76.3V16a64.509 64.509 0 00-2.36-.08c-.4 0-1.32.027-2.76.08v-.42c.48 0 .812-.1 1-.3.186-.213.28-.593.28-1.14v-6.3c0-.613-.094-1.06-.28-1.34-.188-.28-.52-.42-1-.42v-.42c.426.04.84.06 1.24.06 1.186 0 2.16-.093 2.92-.28v1.8c.586-1.24 1.62-1.86 3.1-1.86 1.012 0 1.746.26 2.2.78.252.267.42.667.5 1.2.346-.72.8-1.227 1.36-1.52.56-.307 1.212-.46 1.96-.46 1.012 0 1.746.26 2.2.78.212.24.366.567.46.98.092.413.14.953.14 1.62v5.38zm7.905.5c1.093 0 1.973-.533 2.64-1.6l.36.12a4.8 4.8 0 01-1.44 2.22c-.68.6-1.534.9-2.56.9-1.414 0-2.54-.447-3.38-1.34-.827-.907-1.24-2.24-1.24-4 0-1.8.446-3.173 1.34-4.12.893-.96 2.08-1.44 3.56-1.44 2.506 0 3.76 1.48 3.76 4.44h-5.62c-.014.2-.02.513-.02.94 0 .88.12 1.613.36 2.2.253.587.573 1.013.96 1.28.4.267.826.4 1.28.4zm-.84-8.84c-.48 0-.88.3-1.2.9-.307.587-.5 1.5-.58 2.74h3.14c.026-1.053-.08-1.92-.32-2.6-.227-.693-.574-1.04-1.04-1.04zm7.678 10.34c-.854 0-1.494-.22-1.92-.66-.414-.44-.62-1.02-.62-1.74 0-.6.153-1.093.46-1.48.32-.4.7-.707 1.14-.92.453-.213 1.026-.44 1.72-.68.733-.253 1.266-.48 1.6-.68.346-.213.52-.5.52-.86V7.56c0-.56-.134-.993-.4-1.3-.254-.32-.654-.48-1.2-.48-.64 0-1.127.16-1.46.48.373.133.66.333.86.6.213.267.32.58.32.94 0 .453-.154.813-.46 1.08-.307.267-.68.4-1.12.4-.467 0-.827-.147-1.08-.44-.254-.293-.38-.66-.38-1.1 0-.373.086-.687.26-.94.186-.267.466-.513.84-.74.36-.213.8-.38 1.32-.5a7.923 7.923 0 011.74-.18c.653 0 1.22.067 1.7.2s.88.36 1.2.68c.293.293.486.653.58 1.08.106.427.16 1.007.16 1.74v5.44c0 .32.026.547.08.68.066.133.186.2.36.2.2 0 .44-.113.72-.34l.2.34c-.6.493-1.334.74-2.2.74-.734 0-1.247-.147-1.54-.44-.294-.293-.447-.687-.46-1.18-.667 1.08-1.647 1.62-2.94 1.62zm1.54-1.28c.52 0 .973-.273 1.36-.82v-4.1c-.16.267-.5.56-1.02.88-.52.333-.914.667-1.18 1-.267.333-.4.813-.4 1.44 0 .547.113.953.34 1.22.226.253.526.38.9.38zM91.552 2.24c-.454.027-.78.08-.98.16-.2.08-.34.233-.42.46-.067.227-.1.593-.1 1.1v9.92c0 .507.033.873.1 1.1.08.227.22.38.42.46.213.08.54.133.98.16v.4c-.734-.04-1.78-.06-3.14-.06-1.427 0-2.48.02-3.16.06v-.4c.48-.027.827-.08 1.04-.16a.72.72 0 00.46-.46c.08-.227.12-.593.12-1.1V3.42l-4.82 12.6h-.32l-5.4-12.88v9.58c0 .787.04 1.367.12 1.74.08.36.253.627.52.8.267.16.7.273 1.3.34v.4c-.52-.04-1.24-.06-2.16-.06-.733 0-1.313.02-1.74.06v-.4c.44-.067.76-.18.96-.34.213-.16.353-.413.42-.76.08-.347.12-.86.12-1.54v-9c0-.507-.04-.873-.12-1.1a.663.663 0 00-.42-.46c-.2-.08-.52-.133-.96-.16v-.4c.427.04 1.007.06 1.74.06 1.227 0 2.28-.02 3.16-.06l4.04 9.74 3.68-9.68h1.42c1.36 0 2.406-.02 3.14-.06v.4z" fill="#fff"/><path d="M70.981 13.2c.52 0 .934.14 1.24.42.307.267.46.64.46 1.12 0 .48-.153.86-.46 1.14-.306.267-.72.4-1.24.4s-.933-.133-1.24-.4c-.306-.28-.46-.66-.46-1.14 0-.48.154-.853.46-1.12.307-.28.72-.42 1.24-.42z" fill="#F2D123"/></svg>